M48
; DRILL file {KiCad 9.0.6} date 2025-12-17T00:42:00-0300
; FORMAT={-:-/ absolute / metric / decimal}
; #@! TF.CreationDate,2025-12-17T00:42:00-03:00
; #@! TF.GenerationSoftware,Kicad,Pcbnew,9.0.6
; #@! TF.FileFunction,Plated,1,2,PTH
FMAT,2
METRIC
; #@! TA.AperFunction,Plated,PTH,ViaDrill
T1C0.800
; #@! TA.AperFunction,Plated,PTH,ComponentDrill
T2C0.800
; #@! TA.AperFunction,Plated,PTH,ComponentDrill
T3C1.100
; #@! TA.AperFunction,Plated,PTH,ComponentDrill
T4C1.600
%
G90
G05
T1
X72.075Y-157.41
X76.5Y-155.635
X79.9Y-110.335
X83.35Y-114.885
X85.96Y-132.835
X88.6Y-126.235
X89.2Y-187.555
X89.35Y-92.435
X93.598Y-85.983
X97.85Y-82.135
X98.15Y-87.535
X98.65Y-130.635
X101.45Y-87.202
X102.909Y-90.095
X103.7Y-154.185
X103.805Y-156.446
X104.6Y-164.755
X141.125Y-77.82
X143.075Y-187.605
X146.725Y-72.22
X166.425Y-164.37
X192.875Y-82.32
X196.9Y-187.405
X205.45Y-77.92
T2
X58.5Y-147.575
X58.5Y-155.195
X61.85Y-147.575
X61.85Y-155.195
X64.6Y-74.975
X64.6Y-82.595
X64.7Y-93.635
X64.7Y-101.255
X64.97Y-105.185
X65.08Y-109.635
X65.85Y-133.605
X65.85Y-141.225
X68.97Y-78.585
X69.0Y-82.235
X69.5Y-133.565
X69.5Y-141.185
X69.68Y-89.585
X69.68Y-93.835
X69.68Y-97.285
X72.388Y-115.815
X72.388Y-123.435
X72.59Y-105.185
X72.7Y-109.635
X72.88Y-230.455
X73.05Y-127.365
X73.05Y-134.985
X75.03Y-166.685
X75.638Y-115.815
X75.638Y-123.435
X76.45Y-127.335
X76.45Y-134.955
X76.59Y-78.585
X76.62Y-82.235
X76.65Y-174.455
X76.65Y-176.995
X77.3Y-89.585
X77.3Y-93.835
X77.3Y-97.285
X78.16Y-170.205
X80.5Y-230.455
X80.7Y-170.205
X81.25Y-217.535
X81.25Y-225.155
X82.65Y-166.685
X84.25Y-79.065
X84.25Y-86.685
X84.6Y-232.265
X84.6Y-234.805
X85.05Y-197.305
X85.05Y-199.845
X85.05Y-217.495
X85.05Y-225.115
X85.55Y-164.582
X85.55Y-172.202
X85.55Y-175.445
X85.55Y-183.065
X85.96Y-103.715
X85.96Y-111.335
X88.5Y-103.715
X88.5Y-111.335
X90.05Y-217.495
X90.05Y-225.115
X90.05Y-228.785
X90.05Y-231.325
X91.04Y-103.715
X91.04Y-111.335
X93.58Y-103.715
X93.58Y-111.335
X94.08Y-238.055
X95.53Y-243.055
X95.55Y-217.495
X95.55Y-225.115
X96.12Y-103.715
X96.12Y-111.335
X98.66Y-103.715
X98.66Y-111.335
X101.2Y-103.715
X101.2Y-111.335
X101.7Y-238.055
X101.8Y-224.455
X101.8Y-226.995
X103.15Y-243.055
X108.24Y-130.405
X109.09Y-110.155
X109.09Y-114.105
X109.09Y-118.055
X109.09Y-122.005
X109.45Y-101.945
X109.45Y-104.485
X111.01Y-95.005
X113.55Y-95.005
X115.8Y-82.185
X115.8Y-89.805
X115.86Y-130.405
X116.71Y-110.155
X116.71Y-114.105
X116.71Y-118.055
X116.71Y-122.005
X116.95Y-104.02
X116.95Y-106.56
X121.0Y-82.185
X121.0Y-89.805
X122.675Y-104.78
X122.675Y-107.32
X129.03Y-166.135
X130.45Y-176.845
X130.45Y-179.385
X131.685Y-171.255
X131.78Y-241.055
X134.225Y-171.255
X134.675Y-217.745
X134.675Y-225.365
X136.65Y-166.135
X137.1Y-232.105
X137.1Y-234.645
X138.925Y-217.745
X138.925Y-225.365
X139.4Y-241.055
X139.425Y-164.632
X139.425Y-172.252
X139.425Y-175.495
X139.425Y-183.115
X143.925Y-217.685
X143.925Y-225.305
X143.925Y-228.785
X143.925Y-231.325
X144.35Y-199.455
X144.35Y-201.995
X147.955Y-238.055
X149.405Y-243.055
X149.425Y-217.495
X149.425Y-225.115
X149.943Y-130.055
X150.05Y-100.245
X150.05Y-102.785
X150.793Y-109.805
X150.793Y-113.755
X150.793Y-117.705
X150.793Y-121.655
X152.713Y-93.57
X155.253Y-93.57
X155.575Y-238.055
X155.675Y-224.455
X155.675Y-226.995
X157.025Y-243.055
X157.503Y-81.835
X157.503Y-89.455
X157.563Y-130.055
X158.413Y-109.805
X158.413Y-113.755
X158.413Y-117.705
X158.413Y-121.655
X162.703Y-81.835
X162.703Y-89.455
X163.825Y-114.93
X163.825Y-117.47
X164.003Y-105.185
X164.003Y-107.725
X182.88Y-167.885
X185.51Y-171.055
X185.655Y-241.055
X188.05Y-171.055
X188.55Y-217.745
X188.55Y-225.365
X190.5Y-167.885
X191.925Y-140.5
X191.925Y-143.04
X192.8Y-217.745
X192.8Y-225.365
X192.9Y-232.395
X192.9Y-234.935
X193.25Y-164.432
X193.25Y-172.052
X193.25Y-175.295
X193.25Y-182.915
X193.275Y-241.055
X194.05Y-100.745
X194.05Y-103.285
X195.49Y-130.055
X196.34Y-109.805
X196.34Y-113.755
X196.34Y-117.705
X196.34Y-121.655
X197.8Y-217.685
X197.8Y-225.305
X197.8Y-228.785
X197.8Y-231.325
X198.225Y-199.455
X198.225Y-201.995
X201.83Y-238.055
X203.05Y-81.835
X203.05Y-89.455
X203.11Y-130.055
X203.28Y-243.055
X203.3Y-217.495
X203.3Y-225.115
X203.96Y-109.805
X203.96Y-113.755
X203.96Y-117.705
X203.96Y-121.655
X208.25Y-81.835
X208.25Y-89.455
X209.45Y-238.055
X209.55Y-105.185
X209.55Y-107.725
X209.55Y-224.455
X209.55Y-226.995
X210.9Y-243.055
X221.56Y-77.505
X224.1Y-77.505
T3
X59.45Y-80.56
X59.45Y-83.1
X59.45Y-87.443
X59.45Y-89.983
X59.45Y-94.325
X59.45Y-96.865
X59.45Y-104.005
X59.45Y-106.545
X59.45Y-110.955
X59.45Y-113.495
X59.45Y-117.905
X59.45Y-120.445
X59.45Y-127.585
X59.45Y-130.125
X59.45Y-134.399
X59.45Y-136.939
X59.45Y-141.212
X59.45Y-143.752
X59.76Y-163.595
X59.76Y-166.135
X59.76Y-168.675
X59.76Y-171.215
X59.76Y-173.755
X59.76Y-176.295
X59.76Y-178.835
X59.76Y-181.375
X59.76Y-183.915
X59.76Y-186.455
X59.76Y-188.995
X59.76Y-191.535
X62.3Y-163.595
X62.3Y-166.135
X62.3Y-168.675
X62.3Y-171.215
X62.3Y-173.755
X62.3Y-176.295
X62.3Y-178.835
X62.3Y-181.375
X62.3Y-183.915
X62.3Y-186.455
X62.3Y-188.995
X62.3Y-191.535
X76.3Y-217.195
X76.3Y-224.815
X80.8Y-175.445
X80.8Y-183.065
X90.55Y-195.725
X90.55Y-198.265
X90.55Y-200.805
X90.55Y-206.805
X90.55Y-209.345
X90.55Y-211.885
X104.17Y-75.685
X109.25Y-75.685
X111.7Y-150.105
X111.7Y-157.725
X120.925Y-74.77
X120.925Y-77.31
X122.05Y-113.055
X122.05Y-115.595
X122.05Y-118.135
X122.05Y-124.055
X122.05Y-126.595
X122.05Y-129.135
X130.175Y-217.745
X130.175Y-225.365
X131.375Y-74.77
X131.375Y-77.31
X134.675Y-175.495
X134.675Y-183.115
X144.425Y-206.805
X144.425Y-209.345
X144.425Y-211.885
X150.025Y-74.78
X150.025Y-77.32
X153.55Y-149.755
X153.55Y-157.375
X163.753Y-123.705
X163.753Y-126.245
X163.753Y-128.785
X184.05Y-217.745
X184.05Y-225.365
X188.5Y-175.295
X188.5Y-182.915
X198.3Y-206.805
X198.3Y-209.345
X198.3Y-211.885
X198.65Y-74.645
X198.65Y-77.185
X198.95Y-149.755
X198.95Y-157.375
X209.3Y-123.705
X209.3Y-126.245
X209.3Y-128.785
X210.625Y-74.72
X211.035Y-247.97
X213.165Y-74.72
X213.575Y-247.97
X215.705Y-74.72
X216.115Y-247.97
X235.575Y-160.88
X235.575Y-163.42
T4
X98.55Y-165.055
X98.55Y-187.555
X98.55Y-191.805
X98.55Y-214.305
X115.55Y-168.805
X115.55Y-241.705
X118.8Y-134.805
X118.8Y-157.305
X136.05Y-82.905
X136.05Y-155.805
X152.425Y-165.105
X152.425Y-187.605
X152.425Y-191.805
X152.425Y-214.305
X160.503Y-134.455
X160.503Y-156.955
X169.425Y-168.805
X169.425Y-241.705
X177.75Y-82.555
X177.75Y-155.455
X206.05Y-134.455
X206.05Y-156.955
X206.25Y-164.905
X206.25Y-187.405
X206.3Y-191.805
X206.3Y-214.305
X223.3Y-82.555
X223.3Y-155.455
X223.3Y-168.805
X223.3Y-241.705
M30
