M48
; DRILL file {KiCad 9.0.6} date 2025-11-28T01:21:06-0300
; FORMAT={-:-/ absolute / metric / decimal}
; #@! TF.CreationDate,2025-11-28T01:21:06-03:00
; #@! TF.GenerationSoftware,Kicad,Pcbnew,9.0.6
; #@! TF.FileFunction,Plated,1,2,PTH
FMAT,2
METRIC
; #@! TA.AperFunction,Plated,PTH,ViaDrill
T1C0.800
; #@! TA.AperFunction,Plated,PTH,ComponentDrill
T2C0.800
; #@! TA.AperFunction,Plated,PTH,ComponentDrill
T3C1.100
; #@! TA.AperFunction,Plated,PTH,ComponentDrill
T4C1.300
; #@! TA.AperFunction,Plated,PTH,ComponentDrill
T5C1.520
; #@! TA.AperFunction,Plated,PTH,ComponentDrill
T6C1.570
%
G90
G05
T1
X388.0Y-110.9
X401.9Y-60.25
X405.795Y-86.795
X406.15Y-139.15
X406.2Y-73.88
X408.5Y-135.8
X409.62Y-97.177
X412.35Y-99.85
X420.2Y-120.35
X423.05Y-113.237
X427.6Y-122.7
X458.262Y-109.712
X460.025Y-139.2
X461.65Y-115.95
X466.25Y-110.1
X513.85Y-139.0
T2
X389.83Y-182.05
X391.88Y-116.7
X395.88Y-66.26
X395.88Y-68.8
X395.88Y-71.34
X395.88Y-73.88
X395.88Y-76.42
X395.88Y-78.96
X395.88Y-81.5
X397.45Y-182.05
X397.75Y-169.09
X397.75Y-176.71
X399.5Y-116.7
X402.0Y-169.09
X402.0Y-176.71
X402.5Y-116.177
X402.5Y-123.797
X402.5Y-127.039
X402.5Y-134.659
X403.5Y-66.26
X403.5Y-68.8
X403.5Y-71.34
X403.5Y-73.88
X403.5Y-76.42
X403.5Y-78.96
X403.5Y-81.5
X407.0Y-169.09
X407.0Y-176.71
X411.03Y-189.65
X412.48Y-194.65
X412.5Y-169.09
X412.5Y-176.71
X418.65Y-189.65
X420.1Y-194.65
X425.19Y-82.0
X426.04Y-61.75
X426.04Y-65.7
X426.04Y-69.65
X426.04Y-73.6
X432.75Y-33.78
X432.75Y-41.4
X432.81Y-82.0
X433.66Y-61.75
X433.66Y-65.7
X433.66Y-69.65
X433.66Y-73.6
X437.95Y-33.78
X437.95Y-41.4
X445.755Y-116.75
X448.73Y-192.65
X451.625Y-169.34
X451.625Y-176.96
X453.375Y-116.75
X455.875Y-169.34
X455.875Y-176.96
X456.35Y-192.65
X456.375Y-116.227
X456.375Y-123.847
X456.375Y-127.09
X456.375Y-134.709
X460.875Y-169.28
X460.875Y-176.9
X464.905Y-189.65
X466.355Y-194.65
X466.375Y-169.09
X466.375Y-176.71
X466.893Y-81.65
X467.743Y-61.4
X467.743Y-65.35
X467.743Y-69.3
X467.743Y-73.25
X472.525Y-189.65
X473.975Y-194.65
X474.453Y-33.43
X474.453Y-41.05
X474.513Y-81.65
X475.363Y-61.4
X475.363Y-65.35
X475.363Y-69.3
X475.363Y-73.25
X479.653Y-33.43
X479.653Y-41.05
X499.58Y-116.55
X502.605Y-192.65
X505.5Y-169.34
X505.5Y-176.96
X507.2Y-116.55
X509.75Y-169.34
X509.75Y-176.96
X510.2Y-116.027
X510.2Y-123.647
X510.2Y-126.889
X510.2Y-134.51
X510.225Y-192.65
X512.44Y-81.65
X513.29Y-61.4
X513.29Y-65.35
X513.29Y-69.3
X513.29Y-73.25
X514.75Y-169.28
X514.75Y-176.9
X518.78Y-189.65
X520.0Y-33.43
X520.0Y-41.05
X520.06Y-81.65
X520.23Y-194.65
X520.25Y-169.09
X520.25Y-176.71
X520.91Y-61.4
X520.91Y-65.35
X520.91Y-69.3
X520.91Y-73.25
X525.2Y-33.43
X525.2Y-41.05
X526.4Y-189.65
X527.85Y-194.65
T3
X382.31Y-32.95
X383.4Y-38.11
X383.4Y-40.65
X384.85Y-32.95
X387.65Y-94.05
X388.78Y-25.81
X390.19Y-94.05
X390.85Y-42.43
X390.85Y-44.97
X391.32Y-25.81
X392.73Y-94.05
X393.25Y-168.79
X393.25Y-176.41
X393.6Y-126.05
X393.6Y-128.59
X394.9Y-33.54
X394.9Y-36.08
X395.11Y-121.8
X395.27Y-94.05
X397.55Y-157.66
X397.55Y-160.2
X397.65Y-121.8
X397.75Y-127.039
X397.75Y-134.659
X397.81Y-94.05
X400.35Y-94.05
X401.05Y-27.36
X401.05Y-29.9
X401.55Y-183.86
X401.55Y-186.4
X401.75Y-149.2
X401.75Y-151.74
X402.89Y-94.05
X405.43Y-94.05
X407.0Y-180.38
X407.0Y-182.92
X407.5Y-147.32
X407.5Y-149.86
X407.5Y-152.4
X407.5Y-158.4
X407.5Y-160.94
X407.5Y-163.48
X407.97Y-94.05
X410.51Y-94.05
X413.05Y-94.05
X415.59Y-94.05
X418.75Y-176.05
X418.75Y-178.59
X427.1Y-51.81
X427.1Y-54.35
X427.96Y-46.6
X428.65Y-101.7
X428.65Y-109.32
X430.5Y-46.6
X439.0Y-64.65
X439.0Y-67.19
X439.0Y-69.73
X439.0Y-75.65
X439.0Y-78.19
X439.0Y-80.73
X439.25Y-57.13
X439.25Y-59.67
X447.125Y-169.34
X447.125Y-176.96
X447.45Y-126.58
X447.45Y-129.12
X448.635Y-122.85
X451.175Y-122.85
X451.625Y-127.09
X451.625Y-134.709
X455.425Y-183.86
X455.425Y-186.4
X460.875Y-180.38
X460.875Y-182.92
X461.3Y-151.05
X461.3Y-153.59
X461.375Y-158.4
X461.375Y-160.94
X461.375Y-163.48
X466.95Y-32.71
X466.95Y-35.25
X468.803Y-51.46
X468.803Y-54.0
X469.663Y-46.25
X470.5Y-101.35
X470.5Y-108.97
X472.203Y-46.25
X472.625Y-176.05
X472.625Y-178.59
X480.703Y-75.3
X480.703Y-77.84
X480.703Y-80.38
X480.953Y-56.78
X480.953Y-59.32
X501.0Y-169.34
X501.0Y-176.96
X502.46Y-122.65
X505.0Y-122.65
X505.45Y-126.889
X505.45Y-134.51
X509.3Y-183.86
X509.3Y-186.4
X514.05Y-34.085
X514.05Y-36.625
X514.35Y-51.46
X514.35Y-54.0
X514.75Y-180.38
X514.75Y-182.92
X515.175Y-151.05
X515.175Y-153.59
X515.21Y-46.25
X515.25Y-158.4
X515.25Y-160.94
X515.25Y-163.48
X515.9Y-101.35
X515.9Y-108.97
X517.75Y-46.25
X526.25Y-75.3
X526.25Y-77.84
X526.25Y-80.38
X526.5Y-56.78
X526.5Y-59.32
X526.5Y-176.05
X526.5Y-178.59
T4
X415.5Y-116.65
X415.5Y-139.15
X415.5Y-143.4
X415.5Y-165.9
X435.75Y-86.4
X435.75Y-108.9
X469.375Y-116.7
X469.375Y-139.2
X469.375Y-143.4
X469.375Y-165.9
X477.453Y-86.05
X477.453Y-108.55
X523.0Y-86.05
X523.0Y-108.55
X523.2Y-116.5
X523.2Y-139.0
X523.25Y-143.4
X523.25Y-165.9
T5
X413.2Y-34.8
X413.2Y-39.88
T6
X432.5Y-120.4
X432.5Y-193.3
X453.0Y-34.5
X453.0Y-107.4
X486.375Y-120.4
X486.375Y-193.3
X494.703Y-34.15
X494.703Y-107.05
X540.25Y-34.15
X540.25Y-107.05
X540.25Y-120.4
X540.25Y-193.3
M30
