M48
; DRILL file {KiCad 9.0.6} date 2025-11-27T23:05:26-0300
; FORMAT={-:-/ absolute / metric / decimal}
; #@! TF.CreationDate,2025-11-27T23:05:26-03:00
; #@! TF.GenerationSoftware,Kicad,Pcbnew,9.0.6
; #@! TF.FileFunction,Plated,1,2,PTH
FMAT,2
METRIC
; #@! TA.AperFunction,Plated,PTH,ViaDrill
T1C0.800
; #@! TA.AperFunction,Plated,PTH,ComponentDrill
T2C0.800
; #@! TA.AperFunction,Plated,PTH,ComponentDrill
T3C1.000
; #@! TA.AperFunction,Plated,PTH,ComponentDrill
T4C1.100
; #@! TA.AperFunction,Plated,PTH,ComponentDrill
T5C1.300
; #@! TA.AperFunction,Plated,PTH,ComponentDrill
T6C1.520
; #@! TA.AperFunction,Plated,PTH,ComponentDrill
T7C1.570
%
G90
G05
T1
X357.55Y227.25
X371.45Y176.6
X375.345Y203.145
X375.7Y255.5
X375.75Y190.23
X378.05Y252.15
X390.85Y236.75
X393.126Y228.749
X397.15Y239.05
X428.25Y226.4
X429.575Y255.55
X431.2Y232.3
X435.75Y228.05
X483.4Y255.35
T2
X359.38Y298.4
X361.43Y233.05
X365.43Y182.61
X365.43Y185.15
X365.43Y187.69
X365.43Y190.23
X365.43Y192.77
X365.43Y195.31
X365.43Y197.85
X367.0Y298.4
X367.3Y285.44
X367.3Y293.06
X369.05Y233.05
X371.55Y285.44
X371.55Y293.06
X372.05Y232.527
X372.05Y240.147
X372.05Y243.389
X372.05Y251.01
X373.05Y182.61
X373.05Y185.15
X373.05Y187.69
X373.05Y190.23
X373.05Y192.77
X373.05Y195.31
X373.05Y197.85
X376.55Y285.44
X376.55Y293.06
X380.58Y306.0
X382.03Y311.0
X382.05Y285.44
X382.05Y293.06
X388.2Y306.0
X389.65Y311.0
X394.74Y198.35
X395.59Y178.1
X395.59Y182.05
X395.59Y186.0
X395.59Y189.95
X402.3Y150.13
X402.3Y157.75
X402.36Y198.35
X403.21Y178.1
X403.21Y182.05
X403.21Y186.0
X403.21Y189.95
X407.5Y150.13
X407.5Y157.75
X415.305Y233.1
X418.28Y309.0
X421.175Y285.69
X421.175Y293.31
X422.925Y233.1
X425.425Y285.69
X425.425Y293.31
X425.9Y309.0
X425.925Y232.577
X425.925Y240.197
X425.925Y243.439
X425.925Y251.059
X430.425Y285.63
X430.425Y293.25
X434.455Y306.0
X435.905Y311.0
X435.925Y285.44
X435.925Y293.06
X436.443Y198.0
X437.293Y177.75
X437.293Y181.7
X437.293Y185.65
X437.293Y189.6
X442.075Y306.0
X443.525Y311.0
X444.003Y149.78
X444.003Y157.4
X444.063Y198.0
X444.913Y177.75
X444.913Y181.7
X444.913Y185.65
X444.913Y189.6
X449.203Y149.78
X449.203Y157.4
X469.13Y232.9
X472.155Y309.0
X475.05Y285.69
X475.05Y293.31
X476.75Y232.9
X479.3Y285.69
X479.3Y293.31
X479.75Y232.377
X479.75Y239.997
X479.75Y243.239
X479.75Y250.859
X479.775Y309.0
X481.99Y198.0
X482.84Y177.75
X482.84Y181.7
X482.84Y185.65
X482.84Y189.6
X484.3Y285.63
X484.3Y293.25
X488.33Y306.0
X489.55Y149.78
X489.55Y157.4
X489.61Y198.0
X489.78Y311.0
X489.8Y285.44
X489.8Y293.06
X490.46Y177.75
X490.46Y181.7
X490.46Y185.65
X490.46Y189.6
X494.75Y149.78
X494.75Y157.4
X495.95Y306.0
X497.4Y311.0
T3
X309.15Y129.21
X311.69Y129.21
X315.85Y139.21
X315.85Y141.75
X321.23Y126.91
X323.77Y126.91
X324.2Y145.68
X324.2Y148.22
X327.35Y134.64
X327.35Y137.18
X333.5Y128.46
X333.5Y131.0
X357.2Y210.4
X359.74Y210.4
X362.28Y210.4
X363.15Y242.4
X363.15Y244.94
X364.66Y238.15
X364.82Y210.4
X367.1Y274.01
X367.1Y276.55
X367.2Y238.15
X367.36Y210.4
X369.9Y210.4
X371.1Y300.21
X371.1Y302.75
X371.3Y265.55
X371.3Y268.09
X372.44Y210.4
X374.98Y210.4
X376.55Y296.73
X376.55Y299.27
X377.52Y210.4
X380.06Y210.4
X382.6Y210.4
X385.14Y210.4
X388.3Y292.4
X388.3Y294.94
X396.65Y168.16
X396.65Y170.7
X397.51Y162.95
X400.05Y162.95
X408.8Y173.48
X408.8Y176.02
X417.0Y242.93
X417.0Y245.47
X418.185Y239.2
X420.725Y239.2
X424.975Y300.21
X424.975Y302.75
X430.425Y296.73
X430.425Y299.27
X430.85Y267.4
X430.85Y269.94
X436.5Y149.06
X436.5Y151.6
X438.353Y167.81
X438.353Y170.35
X439.213Y162.6
X441.753Y162.6
X442.175Y292.4
X442.175Y294.94
X450.503Y173.13
X450.503Y175.67
X472.01Y239.0
X474.55Y239.0
X478.85Y300.21
X478.85Y302.75
X483.6Y150.435
X483.6Y152.975
X483.9Y167.81
X483.9Y170.35
X484.3Y296.73
X484.3Y299.27
X484.725Y267.4
X484.725Y269.94
X484.76Y162.6
X487.3Y162.6
X496.05Y173.13
X496.05Y175.67
X496.05Y292.4
X496.05Y294.94
T4
X362.8Y285.14
X362.8Y292.76
X367.3Y243.389
X367.3Y251.01
X377.05Y263.67
X377.05Y266.21
X377.05Y268.75
X377.05Y274.75
X377.05Y277.29
X377.05Y279.83
X397.9Y219.95
X397.9Y227.57
X408.55Y181.0
X408.55Y183.54
X408.55Y186.08
X408.55Y192.0
X408.55Y194.54
X408.55Y197.08
X416.675Y285.69
X416.675Y293.31
X421.175Y243.439
X421.175Y251.059
X430.925Y274.75
X430.925Y277.29
X430.925Y279.83
X439.85Y220.25
X439.85Y227.87
X450.253Y191.65
X450.253Y194.19
X450.253Y196.73
X470.55Y285.69
X470.55Y293.31
X475.0Y243.239
X475.0Y250.859
X484.8Y274.75
X484.8Y277.29
X484.8Y279.83
X485.25Y214.3
X485.25Y221.92
X495.8Y191.65
X495.8Y194.19
X495.8Y196.73
T5
X385.05Y233.0
X385.05Y255.5
X385.05Y259.75
X385.05Y282.25
X405.3Y202.75
X405.3Y225.25
X438.925Y233.05
X438.925Y255.55
X438.925Y259.75
X438.925Y282.25
X447.003Y202.4
X447.003Y224.9
X492.55Y202.4
X492.55Y224.9
X492.75Y232.85
X492.75Y255.35
X492.8Y259.75
X492.8Y282.25
T6
X382.75Y151.15
X382.75Y156.23
T7
X402.05Y236.75
X402.05Y309.65
X422.55Y150.85
X422.55Y223.75
X455.925Y236.75
X455.925Y309.65
X464.253Y150.5
X464.253Y223.4
X509.8Y150.5
X509.8Y223.4
X509.8Y236.75
X509.8Y309.65
M30
