M48
; DRILL file KiCad 10.0.1 date 2026-05-08T15:31:27
; FORMAT={-:-/ absolute / metric / decimal}
; #@! TF.CreationDate,2026-05-08T15:31:27-03:00
; #@! TF.GenerationSoftware,Kicad,Pcbnew,10.0.1
; #@! TF.FileFunction,Plated,1,2,PTH
FMAT,2
METRIC
; #@! TA.AperFunction,Plated,PTH,ViaDrill
T1C1.000
; #@! TA.AperFunction,Plated,PTH,ComponentDrill
T2C1.000
; #@! TA.AperFunction,Plated,PTH,ComponentDrill
T3C1.500
%
G90
G05
T1
X150.97Y-86.43
X155.47Y-86.33
T2
X105.7Y-99.47
X105.7Y-102.01
X105.7Y-104.55
X105.7Y-107.09
X105.72Y-92.83
X105.72Y-95.37
X110.55Y-116.541
X113.09Y-116.541
X115.63Y-116.541
X118.17Y-116.541
X120.71Y-116.541
X123.25Y-116.541
X125.79Y-116.541
X143.38Y-114.09
X143.38Y-116.63
X145.92Y-114.09
X145.92Y-116.63
X148.46Y-114.09
X148.46Y-116.63
X151.0Y-114.09
X151.0Y-116.63
X153.54Y-114.09
X153.54Y-116.63
X156.08Y-114.09
X156.08Y-116.63
X158.62Y-114.09
X158.62Y-116.63
X190.064Y-90.796
X190.064Y-93.336
X190.064Y-95.876
X190.064Y-98.416
X190.064Y-100.956
X190.064Y-103.496
X190.064Y-106.036
T3
X190.02Y-82.03
M30
