M48
; DRILL file {KiCad 9.0.6} date 2025-12-17T00:42:00-0300
; FORMAT={-:-/ absolute / metric / decimal}
; #@! TF.CreationDate,2025-12-17T00:42:00-03:00
; #@! TF.GenerationSoftware,Kicad,Pcbnew,9.0.6
; #@! TF.FileFunction,NonPlated,1,2,NPTH
FMAT,2
METRIC
; #@! TA.AperFunction,NonPlated,NPTH,ComponentDrill
T1C3.000
; #@! TA.AperFunction,NonPlated,NPTH,ComponentDrill
T2C4.000
%
G90
G05
T1
X98.55Y-176.305
X98.55Y-203.055
X115.55Y-177.25
X115.55Y-232.86
X118.8Y-146.055
X136.05Y-91.75
X136.05Y-147.36
X152.425Y-176.355
X152.425Y-203.055
X160.503Y-145.705
X169.425Y-177.25
X169.425Y-232.86
X177.75Y-91.4
X177.75Y-147.01
X206.05Y-145.705
X206.25Y-176.155
X206.3Y-203.055
X223.3Y-91.4
X223.3Y-147.01
X223.3Y-177.25
X223.3Y-232.86
T2
X57.7Y-73.835
X57.7Y-248.673
X237.825Y-73.72
X237.825Y-248.67
M30
