%TF.GenerationSoftware,KiCad,Pcbnew,9.0.6*%
%TF.CreationDate,2025-12-17T00:41:29-03:00*%
%TF.ProjectId,prototipo,70726f74-6f74-4697-906f-2e6b69636164,rev?*%
%TF.SameCoordinates,Original*%
%TF.FileFunction,Drillmap*%
%TF.FilePolarity,Positive*%
%FSLAX45Y45*%
G04 Gerber Fmt 4.5, Leading zero omitted, Abs format (unit mm)*
G04 Created by KiCad (PCBNEW 9.0.6) date 2025-12-17 00:41:29*
%MOMM*%
%LPD*%
G01*
G04 APERTURE LIST*
%ADD10C,0.200000*%
%ADD11C,0.300000*%
%ADD12C,0.400000*%
G04 APERTURE END LIST*
D10*
X5365000Y-6872025D02*
X24207500Y-6872025D01*
X24207500Y-25367025D01*
X5365000Y-25367025D01*
X5365000Y-6872025D01*
D11*
X9705000Y-17480525D02*
X10005000Y-17780525D01*
X10005000Y-17480525D02*
X9705000Y-17780525D01*
X9705000Y-20155525D02*
X10005000Y-20455525D01*
X10005000Y-20155525D02*
X9705000Y-20455525D01*
X11405000Y-17575025D02*
X11705000Y-17875025D01*
X11705000Y-17575025D02*
X11405000Y-17875025D01*
X11405000Y-23136025D02*
X11705000Y-23436025D01*
X11705000Y-23136025D02*
X11405000Y-23436025D01*
X11730000Y-14455525D02*
X12030000Y-14755525D01*
X12030000Y-14455525D02*
X11730000Y-14755525D01*
X13455000Y-9025025D02*
X13755000Y-9325025D01*
X13755000Y-9025025D02*
X13455000Y-9325025D01*
X13455000Y-14586025D02*
X13755000Y-14886025D01*
X13755000Y-14586025D02*
X13455000Y-14886025D01*
X15092500Y-17485525D02*
X15392500Y-17785525D01*
X15392500Y-17485525D02*
X15092500Y-17785525D01*
X15092500Y-20155525D02*
X15392500Y-20455525D01*
X15392500Y-20155525D02*
X15092500Y-20455525D01*
X15900300Y-14420525D02*
X16200300Y-14720525D01*
X16200300Y-14420525D02*
X15900300Y-14720525D01*
X16792500Y-17575025D02*
X17092500Y-17875025D01*
X17092500Y-17575025D02*
X16792500Y-17875025D01*
X16792500Y-23136025D02*
X17092500Y-23436025D01*
X17092500Y-23136025D02*
X16792500Y-23436025D01*
X17625000Y-8990025D02*
X17925000Y-9290025D01*
X17925000Y-8990025D02*
X17625000Y-9290025D01*
X17625000Y-14551025D02*
X17925000Y-14851025D01*
X17925000Y-14551025D02*
X17625000Y-14851025D01*
X20455000Y-14420525D02*
X20755000Y-14720525D01*
X20755000Y-14420525D02*
X20455000Y-14720525D01*
X20475000Y-17465525D02*
X20775000Y-17765525D01*
X20775000Y-17465525D02*
X20475000Y-17765525D01*
X20480000Y-20155525D02*
X20780000Y-20455525D01*
X20780000Y-20155525D02*
X20480000Y-20455525D01*
X22180000Y-8990025D02*
X22480000Y-9290025D01*
X22480000Y-8990025D02*
X22180000Y-9290025D01*
X22180000Y-14551025D02*
X22480000Y-14851025D01*
X22480000Y-14551025D02*
X22180000Y-14851025D01*
X22180000Y-17575025D02*
X22480000Y-17875025D01*
X22480000Y-17575025D02*
X22180000Y-17875025D01*
X22180000Y-23136025D02*
X22480000Y-23436025D01*
X22480000Y-23136025D02*
X22180000Y-23436025D01*
D12*
X5970000Y-7383525D02*
G75*
G02*
X5570000Y-7383525I-200000J0D01*
G01*
X5570000Y-7383525D02*
G75*
G02*
X5970000Y-7383525I200000J0D01*
G01*
X5970000Y-24867283D02*
G75*
G02*
X5570000Y-24867283I-200000J0D01*
G01*
X5570000Y-24867283D02*
G75*
G02*
X5970000Y-24867283I200000J0D01*
G01*
X23982500Y-7372025D02*
G75*
G02*
X23582500Y-7372025I-200000J0D01*
G01*
X23582500Y-7372025D02*
G75*
G02*
X23982500Y-7372025I200000J0D01*
G01*
X23982500Y-24867025D02*
G75*
G02*
X23582500Y-24867025I-200000J0D01*
G01*
X23582500Y-24867025D02*
G75*
G02*
X23982500Y-24867025I200000J0D01*
G01*
D10*
X5615777Y-25688509D02*
X5615777Y-25488509D01*
X5615777Y-25488509D02*
X5663396Y-25488509D01*
X5663396Y-25488509D02*
X5691967Y-25498033D01*
X5691967Y-25498033D02*
X5711015Y-25517080D01*
X5711015Y-25517080D02*
X5720539Y-25536128D01*
X5720539Y-25536128D02*
X5730062Y-25574223D01*
X5730062Y-25574223D02*
X5730062Y-25602794D01*
X5730062Y-25602794D02*
X5720539Y-25640890D01*
X5720539Y-25640890D02*
X5711015Y-25659937D01*
X5711015Y-25659937D02*
X5691967Y-25678985D01*
X5691967Y-25678985D02*
X5663396Y-25688509D01*
X5663396Y-25688509D02*
X5615777Y-25688509D01*
X5815777Y-25688509D02*
X5815777Y-25555175D01*
X5815777Y-25593271D02*
X5825301Y-25574223D01*
X5825301Y-25574223D02*
X5834824Y-25564699D01*
X5834824Y-25564699D02*
X5853872Y-25555175D01*
X5853872Y-25555175D02*
X5872920Y-25555175D01*
X5939586Y-25688509D02*
X5939586Y-25555175D01*
X5939586Y-25488509D02*
X5930062Y-25498033D01*
X5930062Y-25498033D02*
X5939586Y-25507556D01*
X5939586Y-25507556D02*
X5949110Y-25498033D01*
X5949110Y-25498033D02*
X5939586Y-25488509D01*
X5939586Y-25488509D02*
X5939586Y-25507556D01*
X6063396Y-25688509D02*
X6044348Y-25678985D01*
X6044348Y-25678985D02*
X6034824Y-25659937D01*
X6034824Y-25659937D02*
X6034824Y-25488509D01*
X6168158Y-25688509D02*
X6149110Y-25678985D01*
X6149110Y-25678985D02*
X6139586Y-25659937D01*
X6139586Y-25659937D02*
X6139586Y-25488509D01*
X6396729Y-25688509D02*
X6396729Y-25488509D01*
X6396729Y-25488509D02*
X6463396Y-25631366D01*
X6463396Y-25631366D02*
X6530062Y-25488509D01*
X6530062Y-25488509D02*
X6530062Y-25688509D01*
X6711015Y-25688509D02*
X6711015Y-25583747D01*
X6711015Y-25583747D02*
X6701491Y-25564699D01*
X6701491Y-25564699D02*
X6682443Y-25555175D01*
X6682443Y-25555175D02*
X6644348Y-25555175D01*
X6644348Y-25555175D02*
X6625301Y-25564699D01*
X6711015Y-25678985D02*
X6691967Y-25688509D01*
X6691967Y-25688509D02*
X6644348Y-25688509D01*
X6644348Y-25688509D02*
X6625301Y-25678985D01*
X6625301Y-25678985D02*
X6615777Y-25659937D01*
X6615777Y-25659937D02*
X6615777Y-25640890D01*
X6615777Y-25640890D02*
X6625301Y-25621842D01*
X6625301Y-25621842D02*
X6644348Y-25612318D01*
X6644348Y-25612318D02*
X6691967Y-25612318D01*
X6691967Y-25612318D02*
X6711015Y-25602794D01*
X6806253Y-25555175D02*
X6806253Y-25755175D01*
X6806253Y-25564699D02*
X6825301Y-25555175D01*
X6825301Y-25555175D02*
X6863396Y-25555175D01*
X6863396Y-25555175D02*
X6882443Y-25564699D01*
X6882443Y-25564699D02*
X6891967Y-25574223D01*
X6891967Y-25574223D02*
X6901491Y-25593271D01*
X6901491Y-25593271D02*
X6901491Y-25650413D01*
X6901491Y-25650413D02*
X6891967Y-25669461D01*
X6891967Y-25669461D02*
X6882443Y-25678985D01*
X6882443Y-25678985D02*
X6863396Y-25688509D01*
X6863396Y-25688509D02*
X6825301Y-25688509D01*
X6825301Y-25688509D02*
X6806253Y-25678985D01*
X6987205Y-25669461D02*
X6996729Y-25678985D01*
X6996729Y-25678985D02*
X6987205Y-25688509D01*
X6987205Y-25688509D02*
X6977682Y-25678985D01*
X6977682Y-25678985D02*
X6987205Y-25669461D01*
X6987205Y-25669461D02*
X6987205Y-25688509D01*
X6987205Y-25564699D02*
X6996729Y-25574223D01*
X6996729Y-25574223D02*
X6987205Y-25583747D01*
X6987205Y-25583747D02*
X6977682Y-25574223D01*
X6977682Y-25574223D02*
X6987205Y-25564699D01*
X6987205Y-25564699D02*
X6987205Y-25583747D01*
X5155000Y-25917025D02*
X5355000Y-26117025D01*
X5355000Y-25917025D02*
X5155000Y-26117025D01*
X5596729Y-25908509D02*
X5720539Y-25908509D01*
X5720539Y-25908509D02*
X5653872Y-25984699D01*
X5653872Y-25984699D02*
X5682443Y-25984699D01*
X5682443Y-25984699D02*
X5701491Y-25994223D01*
X5701491Y-25994223D02*
X5711015Y-26003747D01*
X5711015Y-26003747D02*
X5720539Y-26022794D01*
X5720539Y-26022794D02*
X5720539Y-26070413D01*
X5720539Y-26070413D02*
X5711015Y-26089461D01*
X5711015Y-26089461D02*
X5701491Y-26098985D01*
X5701491Y-26098985D02*
X5682443Y-26108509D01*
X5682443Y-26108509D02*
X5625301Y-26108509D01*
X5625301Y-26108509D02*
X5606253Y-26098985D01*
X5606253Y-26098985D02*
X5596729Y-26089461D01*
X5806253Y-26089461D02*
X5815777Y-26098985D01*
X5815777Y-26098985D02*
X5806253Y-26108509D01*
X5806253Y-26108509D02*
X5796729Y-26098985D01*
X5796729Y-26098985D02*
X5806253Y-26089461D01*
X5806253Y-26089461D02*
X5806253Y-26108509D01*
X5939586Y-25908509D02*
X5958634Y-25908509D01*
X5958634Y-25908509D02*
X5977682Y-25918033D01*
X5977682Y-25918033D02*
X5987205Y-25927556D01*
X5987205Y-25927556D02*
X5996729Y-25946604D01*
X5996729Y-25946604D02*
X6006253Y-25984699D01*
X6006253Y-25984699D02*
X6006253Y-26032318D01*
X6006253Y-26032318D02*
X5996729Y-26070413D01*
X5996729Y-26070413D02*
X5987205Y-26089461D01*
X5987205Y-26089461D02*
X5977682Y-26098985D01*
X5977682Y-26098985D02*
X5958634Y-26108509D01*
X5958634Y-26108509D02*
X5939586Y-26108509D01*
X5939586Y-26108509D02*
X5920539Y-26098985D01*
X5920539Y-26098985D02*
X5911015Y-26089461D01*
X5911015Y-26089461D02*
X5901491Y-26070413D01*
X5901491Y-26070413D02*
X5891967Y-26032318D01*
X5891967Y-26032318D02*
X5891967Y-25984699D01*
X5891967Y-25984699D02*
X5901491Y-25946604D01*
X5901491Y-25946604D02*
X5911015Y-25927556D01*
X5911015Y-25927556D02*
X5920539Y-25918033D01*
X5920539Y-25918033D02*
X5939586Y-25908509D01*
X6130062Y-25908509D02*
X6149110Y-25908509D01*
X6149110Y-25908509D02*
X6168158Y-25918033D01*
X6168158Y-25918033D02*
X6177682Y-25927556D01*
X6177682Y-25927556D02*
X6187205Y-25946604D01*
X6187205Y-25946604D02*
X6196729Y-25984699D01*
X6196729Y-25984699D02*
X6196729Y-26032318D01*
X6196729Y-26032318D02*
X6187205Y-26070413D01*
X6187205Y-26070413D02*
X6177682Y-26089461D01*
X6177682Y-26089461D02*
X6168158Y-26098985D01*
X6168158Y-26098985D02*
X6149110Y-26108509D01*
X6149110Y-26108509D02*
X6130062Y-26108509D01*
X6130062Y-26108509D02*
X6111015Y-26098985D01*
X6111015Y-26098985D02*
X6101491Y-26089461D01*
X6101491Y-26089461D02*
X6091967Y-26070413D01*
X6091967Y-26070413D02*
X6082443Y-26032318D01*
X6082443Y-26032318D02*
X6082443Y-25984699D01*
X6082443Y-25984699D02*
X6091967Y-25946604D01*
X6091967Y-25946604D02*
X6101491Y-25927556D01*
X6101491Y-25927556D02*
X6111015Y-25918033D01*
X6111015Y-25918033D02*
X6130062Y-25908509D01*
X6320539Y-25908509D02*
X6339586Y-25908509D01*
X6339586Y-25908509D02*
X6358634Y-25918033D01*
X6358634Y-25918033D02*
X6368158Y-25927556D01*
X6368158Y-25927556D02*
X6377682Y-25946604D01*
X6377682Y-25946604D02*
X6387205Y-25984699D01*
X6387205Y-25984699D02*
X6387205Y-26032318D01*
X6387205Y-26032318D02*
X6377682Y-26070413D01*
X6377682Y-26070413D02*
X6368158Y-26089461D01*
X6368158Y-26089461D02*
X6358634Y-26098985D01*
X6358634Y-26098985D02*
X6339586Y-26108509D01*
X6339586Y-26108509D02*
X6320539Y-26108509D01*
X6320539Y-26108509D02*
X6301491Y-26098985D01*
X6301491Y-26098985D02*
X6291967Y-26089461D01*
X6291967Y-26089461D02*
X6282443Y-26070413D01*
X6282443Y-26070413D02*
X6272920Y-26032318D01*
X6272920Y-26032318D02*
X6272920Y-25984699D01*
X6272920Y-25984699D02*
X6282443Y-25946604D01*
X6282443Y-25946604D02*
X6291967Y-25927556D01*
X6291967Y-25927556D02*
X6301491Y-25918033D01*
X6301491Y-25918033D02*
X6320539Y-25908509D01*
X6472920Y-26108509D02*
X6472920Y-25975175D01*
X6472920Y-25994223D02*
X6482443Y-25984699D01*
X6482443Y-25984699D02*
X6501491Y-25975175D01*
X6501491Y-25975175D02*
X6530063Y-25975175D01*
X6530063Y-25975175D02*
X6549110Y-25984699D01*
X6549110Y-25984699D02*
X6558634Y-26003747D01*
X6558634Y-26003747D02*
X6558634Y-26108509D01*
X6558634Y-26003747D02*
X6568158Y-25984699D01*
X6568158Y-25984699D02*
X6587205Y-25975175D01*
X6587205Y-25975175D02*
X6615777Y-25975175D01*
X6615777Y-25975175D02*
X6634824Y-25984699D01*
X6634824Y-25984699D02*
X6644348Y-26003747D01*
X6644348Y-26003747D02*
X6644348Y-26108509D01*
X6739586Y-26108509D02*
X6739586Y-25975175D01*
X6739586Y-25994223D02*
X6749110Y-25984699D01*
X6749110Y-25984699D02*
X6768158Y-25975175D01*
X6768158Y-25975175D02*
X6796729Y-25975175D01*
X6796729Y-25975175D02*
X6815777Y-25984699D01*
X6815777Y-25984699D02*
X6825301Y-26003747D01*
X6825301Y-26003747D02*
X6825301Y-26108509D01*
X6825301Y-26003747D02*
X6834824Y-25984699D01*
X6834824Y-25984699D02*
X6853872Y-25975175D01*
X6853872Y-25975175D02*
X6882443Y-25975175D01*
X6882443Y-25975175D02*
X6901491Y-25984699D01*
X6901491Y-25984699D02*
X6911015Y-26003747D01*
X6911015Y-26003747D02*
X6911015Y-26108509D01*
X7301491Y-25898985D02*
X7130063Y-26156128D01*
X7558634Y-25908509D02*
X7577682Y-25908509D01*
X7577682Y-25908509D02*
X7596729Y-25918033D01*
X7596729Y-25918033D02*
X7606253Y-25927556D01*
X7606253Y-25927556D02*
X7615777Y-25946604D01*
X7615777Y-25946604D02*
X7625301Y-25984699D01*
X7625301Y-25984699D02*
X7625301Y-26032318D01*
X7625301Y-26032318D02*
X7615777Y-26070413D01*
X7615777Y-26070413D02*
X7606253Y-26089461D01*
X7606253Y-26089461D02*
X7596729Y-26098985D01*
X7596729Y-26098985D02*
X7577682Y-26108509D01*
X7577682Y-26108509D02*
X7558634Y-26108509D01*
X7558634Y-26108509D02*
X7539586Y-26098985D01*
X7539586Y-26098985D02*
X7530063Y-26089461D01*
X7530063Y-26089461D02*
X7520539Y-26070413D01*
X7520539Y-26070413D02*
X7511015Y-26032318D01*
X7511015Y-26032318D02*
X7511015Y-25984699D01*
X7511015Y-25984699D02*
X7520539Y-25946604D01*
X7520539Y-25946604D02*
X7530063Y-25927556D01*
X7530063Y-25927556D02*
X7539586Y-25918033D01*
X7539586Y-25918033D02*
X7558634Y-25908509D01*
X7711015Y-26089461D02*
X7720539Y-26098985D01*
X7720539Y-26098985D02*
X7711015Y-26108509D01*
X7711015Y-26108509D02*
X7701491Y-26098985D01*
X7701491Y-26098985D02*
X7711015Y-26089461D01*
X7711015Y-26089461D02*
X7711015Y-26108509D01*
X7911015Y-26108509D02*
X7796729Y-26108509D01*
X7853872Y-26108509D02*
X7853872Y-25908509D01*
X7853872Y-25908509D02*
X7834825Y-25937080D01*
X7834825Y-25937080D02*
X7815777Y-25956128D01*
X7815777Y-25956128D02*
X7796729Y-25965652D01*
X8101491Y-26108509D02*
X7987206Y-26108509D01*
X8044348Y-26108509D02*
X8044348Y-25908509D01*
X8044348Y-25908509D02*
X8025301Y-25937080D01*
X8025301Y-25937080D02*
X8006253Y-25956128D01*
X8006253Y-25956128D02*
X7987206Y-25965652D01*
X8215777Y-25994223D02*
X8196729Y-25984699D01*
X8196729Y-25984699D02*
X8187206Y-25975175D01*
X8187206Y-25975175D02*
X8177682Y-25956128D01*
X8177682Y-25956128D02*
X8177682Y-25946604D01*
X8177682Y-25946604D02*
X8187206Y-25927556D01*
X8187206Y-25927556D02*
X8196729Y-25918033D01*
X8196729Y-25918033D02*
X8215777Y-25908509D01*
X8215777Y-25908509D02*
X8253872Y-25908509D01*
X8253872Y-25908509D02*
X8272920Y-25918033D01*
X8272920Y-25918033D02*
X8282444Y-25927556D01*
X8282444Y-25927556D02*
X8291967Y-25946604D01*
X8291967Y-25946604D02*
X8291967Y-25956128D01*
X8291967Y-25956128D02*
X8282444Y-25975175D01*
X8282444Y-25975175D02*
X8272920Y-25984699D01*
X8272920Y-25984699D02*
X8253872Y-25994223D01*
X8253872Y-25994223D02*
X8215777Y-25994223D01*
X8215777Y-25994223D02*
X8196729Y-26003747D01*
X8196729Y-26003747D02*
X8187206Y-26013271D01*
X8187206Y-26013271D02*
X8177682Y-26032318D01*
X8177682Y-26032318D02*
X8177682Y-26070413D01*
X8177682Y-26070413D02*
X8187206Y-26089461D01*
X8187206Y-26089461D02*
X8196729Y-26098985D01*
X8196729Y-26098985D02*
X8215777Y-26108509D01*
X8215777Y-26108509D02*
X8253872Y-26108509D01*
X8253872Y-26108509D02*
X8272920Y-26098985D01*
X8272920Y-26098985D02*
X8282444Y-26089461D01*
X8282444Y-26089461D02*
X8291967Y-26070413D01*
X8291967Y-26070413D02*
X8291967Y-26032318D01*
X8291967Y-26032318D02*
X8282444Y-26013271D01*
X8282444Y-26013271D02*
X8272920Y-26003747D01*
X8272920Y-26003747D02*
X8253872Y-25994223D01*
X8482444Y-26108509D02*
X8368158Y-26108509D01*
X8425301Y-26108509D02*
X8425301Y-25908509D01*
X8425301Y-25908509D02*
X8406253Y-25937080D01*
X8406253Y-25937080D02*
X8387206Y-25956128D01*
X8387206Y-25956128D02*
X8368158Y-25965652D01*
X8558634Y-25908509D02*
X8558634Y-25946604D01*
X8634825Y-25908509D02*
X8634825Y-25946604D01*
X8930063Y-26184699D02*
X8920539Y-26175175D01*
X8920539Y-26175175D02*
X8901491Y-26146604D01*
X8901491Y-26146604D02*
X8891968Y-26127556D01*
X8891968Y-26127556D02*
X8882444Y-26098985D01*
X8882444Y-26098985D02*
X8872920Y-26051366D01*
X8872920Y-26051366D02*
X8872920Y-26013271D01*
X8872920Y-26013271D02*
X8882444Y-25965652D01*
X8882444Y-25965652D02*
X8891968Y-25937080D01*
X8891968Y-25937080D02*
X8901491Y-25918033D01*
X8901491Y-25918033D02*
X8920539Y-25889461D01*
X8920539Y-25889461D02*
X8930063Y-25879937D01*
X8996730Y-25927556D02*
X9006253Y-25918033D01*
X9006253Y-25918033D02*
X9025301Y-25908509D01*
X9025301Y-25908509D02*
X9072920Y-25908509D01*
X9072920Y-25908509D02*
X9091968Y-25918033D01*
X9091968Y-25918033D02*
X9101491Y-25927556D01*
X9101491Y-25927556D02*
X9111015Y-25946604D01*
X9111015Y-25946604D02*
X9111015Y-25965652D01*
X9111015Y-25965652D02*
X9101491Y-25994223D01*
X9101491Y-25994223D02*
X8987206Y-26108509D01*
X8987206Y-26108509D02*
X9111015Y-26108509D01*
X9301491Y-26108509D02*
X9187206Y-26108509D01*
X9244349Y-26108509D02*
X9244349Y-25908509D01*
X9244349Y-25908509D02*
X9225301Y-25937080D01*
X9225301Y-25937080D02*
X9206253Y-25956128D01*
X9206253Y-25956128D02*
X9187206Y-25965652D01*
X9539587Y-26108509D02*
X9539587Y-25908509D01*
X9625301Y-26108509D02*
X9625301Y-26003747D01*
X9625301Y-26003747D02*
X9615777Y-25984699D01*
X9615777Y-25984699D02*
X9596730Y-25975175D01*
X9596730Y-25975175D02*
X9568158Y-25975175D01*
X9568158Y-25975175D02*
X9549111Y-25984699D01*
X9549111Y-25984699D02*
X9539587Y-25994223D01*
X9749111Y-26108509D02*
X9730063Y-26098985D01*
X9730063Y-26098985D02*
X9720539Y-26089461D01*
X9720539Y-26089461D02*
X9711015Y-26070413D01*
X9711015Y-26070413D02*
X9711015Y-26013271D01*
X9711015Y-26013271D02*
X9720539Y-25994223D01*
X9720539Y-25994223D02*
X9730063Y-25984699D01*
X9730063Y-25984699D02*
X9749111Y-25975175D01*
X9749111Y-25975175D02*
X9777682Y-25975175D01*
X9777682Y-25975175D02*
X9796730Y-25984699D01*
X9796730Y-25984699D02*
X9806253Y-25994223D01*
X9806253Y-25994223D02*
X9815777Y-26013271D01*
X9815777Y-26013271D02*
X9815777Y-26070413D01*
X9815777Y-26070413D02*
X9806253Y-26089461D01*
X9806253Y-26089461D02*
X9796730Y-26098985D01*
X9796730Y-26098985D02*
X9777682Y-26108509D01*
X9777682Y-26108509D02*
X9749111Y-26108509D01*
X9930063Y-26108509D02*
X9911015Y-26098985D01*
X9911015Y-26098985D02*
X9901492Y-26079937D01*
X9901492Y-26079937D02*
X9901492Y-25908509D01*
X10082444Y-26098985D02*
X10063396Y-26108509D01*
X10063396Y-26108509D02*
X10025301Y-26108509D01*
X10025301Y-26108509D02*
X10006253Y-26098985D01*
X10006253Y-26098985D02*
X9996730Y-26079937D01*
X9996730Y-26079937D02*
X9996730Y-26003747D01*
X9996730Y-26003747D02*
X10006253Y-25984699D01*
X10006253Y-25984699D02*
X10025301Y-25975175D01*
X10025301Y-25975175D02*
X10063396Y-25975175D01*
X10063396Y-25975175D02*
X10082444Y-25984699D01*
X10082444Y-25984699D02*
X10091968Y-26003747D01*
X10091968Y-26003747D02*
X10091968Y-26022794D01*
X10091968Y-26022794D02*
X9996730Y-26041842D01*
X10168158Y-26098985D02*
X10187206Y-26108509D01*
X10187206Y-26108509D02*
X10225301Y-26108509D01*
X10225301Y-26108509D02*
X10244349Y-26098985D01*
X10244349Y-26098985D02*
X10253873Y-26079937D01*
X10253873Y-26079937D02*
X10253873Y-26070413D01*
X10253873Y-26070413D02*
X10244349Y-26051366D01*
X10244349Y-26051366D02*
X10225301Y-26041842D01*
X10225301Y-26041842D02*
X10196730Y-26041842D01*
X10196730Y-26041842D02*
X10177682Y-26032318D01*
X10177682Y-26032318D02*
X10168158Y-26013271D01*
X10168158Y-26013271D02*
X10168158Y-26003747D01*
X10168158Y-26003747D02*
X10177682Y-25984699D01*
X10177682Y-25984699D02*
X10196730Y-25975175D01*
X10196730Y-25975175D02*
X10225301Y-25975175D01*
X10225301Y-25975175D02*
X10244349Y-25984699D01*
X10320539Y-26184699D02*
X10330063Y-26175175D01*
X10330063Y-26175175D02*
X10349111Y-26146604D01*
X10349111Y-26146604D02*
X10358634Y-26127556D01*
X10358634Y-26127556D02*
X10368158Y-26098985D01*
X10368158Y-26098985D02*
X10377682Y-26051366D01*
X10377682Y-26051366D02*
X10377682Y-26013271D01*
X10377682Y-26013271D02*
X10368158Y-25965652D01*
X10368158Y-25965652D02*
X10358634Y-25937080D01*
X10358634Y-25937080D02*
X10349111Y-25918033D01*
X10349111Y-25918033D02*
X10330063Y-25889461D01*
X10330063Y-25889461D02*
X10320539Y-25879937D01*
X10682444Y-26184699D02*
X10672920Y-26175175D01*
X10672920Y-26175175D02*
X10653873Y-26146604D01*
X10653873Y-26146604D02*
X10644349Y-26127556D01*
X10644349Y-26127556D02*
X10634825Y-26098985D01*
X10634825Y-26098985D02*
X10625301Y-26051366D01*
X10625301Y-26051366D02*
X10625301Y-26013271D01*
X10625301Y-26013271D02*
X10634825Y-25965652D01*
X10634825Y-25965652D02*
X10644349Y-25937080D01*
X10644349Y-25937080D02*
X10653873Y-25918033D01*
X10653873Y-25918033D02*
X10672920Y-25889461D01*
X10672920Y-25889461D02*
X10682444Y-25879937D01*
X10758634Y-25975175D02*
X10758634Y-26108509D01*
X10758634Y-25994223D02*
X10768158Y-25984699D01*
X10768158Y-25984699D02*
X10787206Y-25975175D01*
X10787206Y-25975175D02*
X10815777Y-25975175D01*
X10815777Y-25975175D02*
X10834825Y-25984699D01*
X10834825Y-25984699D02*
X10844349Y-26003747D01*
X10844349Y-26003747D02*
X10844349Y-26108509D01*
X10968158Y-26108509D02*
X10949111Y-26098985D01*
X10949111Y-26098985D02*
X10939587Y-26089461D01*
X10939587Y-26089461D02*
X10930063Y-26070413D01*
X10930063Y-26070413D02*
X10930063Y-26013271D01*
X10930063Y-26013271D02*
X10939587Y-25994223D01*
X10939587Y-25994223D02*
X10949111Y-25984699D01*
X10949111Y-25984699D02*
X10968158Y-25975175D01*
X10968158Y-25975175D02*
X10996730Y-25975175D01*
X10996730Y-25975175D02*
X11015777Y-25984699D01*
X11015777Y-25984699D02*
X11025301Y-25994223D01*
X11025301Y-25994223D02*
X11034825Y-26013271D01*
X11034825Y-26013271D02*
X11034825Y-26070413D01*
X11034825Y-26070413D02*
X11025301Y-26089461D01*
X11025301Y-26089461D02*
X11015777Y-26098985D01*
X11015777Y-26098985D02*
X10996730Y-26108509D01*
X10996730Y-26108509D02*
X10968158Y-26108509D01*
X11091968Y-25975175D02*
X11168158Y-25975175D01*
X11120539Y-25908509D02*
X11120539Y-26079937D01*
X11120539Y-26079937D02*
X11130063Y-26098985D01*
X11130063Y-26098985D02*
X11149111Y-26108509D01*
X11149111Y-26108509D02*
X11168158Y-26108509D01*
X11387206Y-25975175D02*
X11387206Y-26175175D01*
X11387206Y-25984699D02*
X11406253Y-25975175D01*
X11406253Y-25975175D02*
X11444349Y-25975175D01*
X11444349Y-25975175D02*
X11463396Y-25984699D01*
X11463396Y-25984699D02*
X11472920Y-25994223D01*
X11472920Y-25994223D02*
X11482444Y-26013271D01*
X11482444Y-26013271D02*
X11482444Y-26070413D01*
X11482444Y-26070413D02*
X11472920Y-26089461D01*
X11472920Y-26089461D02*
X11463396Y-26098985D01*
X11463396Y-26098985D02*
X11444349Y-26108509D01*
X11444349Y-26108509D02*
X11406253Y-26108509D01*
X11406253Y-26108509D02*
X11387206Y-26098985D01*
X11596730Y-26108509D02*
X11577682Y-26098985D01*
X11577682Y-26098985D02*
X11568158Y-26079937D01*
X11568158Y-26079937D02*
X11568158Y-25908509D01*
X11758634Y-26108509D02*
X11758634Y-26003747D01*
X11758634Y-26003747D02*
X11749111Y-25984699D01*
X11749111Y-25984699D02*
X11730063Y-25975175D01*
X11730063Y-25975175D02*
X11691968Y-25975175D01*
X11691968Y-25975175D02*
X11672920Y-25984699D01*
X11758634Y-26098985D02*
X11739587Y-26108509D01*
X11739587Y-26108509D02*
X11691968Y-26108509D01*
X11691968Y-26108509D02*
X11672920Y-26098985D01*
X11672920Y-26098985D02*
X11663396Y-26079937D01*
X11663396Y-26079937D02*
X11663396Y-26060890D01*
X11663396Y-26060890D02*
X11672920Y-26041842D01*
X11672920Y-26041842D02*
X11691968Y-26032318D01*
X11691968Y-26032318D02*
X11739587Y-26032318D01*
X11739587Y-26032318D02*
X11758634Y-26022794D01*
X11825301Y-25975175D02*
X11901492Y-25975175D01*
X11853873Y-25908509D02*
X11853873Y-26079937D01*
X11853873Y-26079937D02*
X11863396Y-26098985D01*
X11863396Y-26098985D02*
X11882444Y-26108509D01*
X11882444Y-26108509D02*
X11901492Y-26108509D01*
X12044349Y-26098985D02*
X12025301Y-26108509D01*
X12025301Y-26108509D02*
X11987206Y-26108509D01*
X11987206Y-26108509D02*
X11968158Y-26098985D01*
X11968158Y-26098985D02*
X11958634Y-26079937D01*
X11958634Y-26079937D02*
X11958634Y-26003747D01*
X11958634Y-26003747D02*
X11968158Y-25984699D01*
X11968158Y-25984699D02*
X11987206Y-25975175D01*
X11987206Y-25975175D02*
X12025301Y-25975175D01*
X12025301Y-25975175D02*
X12044349Y-25984699D01*
X12044349Y-25984699D02*
X12053873Y-26003747D01*
X12053873Y-26003747D02*
X12053873Y-26022794D01*
X12053873Y-26022794D02*
X11958634Y-26041842D01*
X12225301Y-26108509D02*
X12225301Y-25908509D01*
X12225301Y-26098985D02*
X12206254Y-26108509D01*
X12206254Y-26108509D02*
X12168158Y-26108509D01*
X12168158Y-26108509D02*
X12149111Y-26098985D01*
X12149111Y-26098985D02*
X12139587Y-26089461D01*
X12139587Y-26089461D02*
X12130063Y-26070413D01*
X12130063Y-26070413D02*
X12130063Y-26013271D01*
X12130063Y-26013271D02*
X12139587Y-25994223D01*
X12139587Y-25994223D02*
X12149111Y-25984699D01*
X12149111Y-25984699D02*
X12168158Y-25975175D01*
X12168158Y-25975175D02*
X12206254Y-25975175D01*
X12206254Y-25975175D02*
X12225301Y-25984699D01*
X12301492Y-26184699D02*
X12311015Y-26175175D01*
X12311015Y-26175175D02*
X12330063Y-26146604D01*
X12330063Y-26146604D02*
X12339587Y-26127556D01*
X12339587Y-26127556D02*
X12349111Y-26098985D01*
X12349111Y-26098985D02*
X12358634Y-26051366D01*
X12358634Y-26051366D02*
X12358634Y-26013271D01*
X12358634Y-26013271D02*
X12349111Y-25965652D01*
X12349111Y-25965652D02*
X12339587Y-25937080D01*
X12339587Y-25937080D02*
X12330063Y-25918033D01*
X12330063Y-25918033D02*
X12311015Y-25889461D01*
X12311015Y-25889461D02*
X12301492Y-25879937D01*
X5355000Y-26337025D02*
G75*
G02*
X5155000Y-26337025I-100000J0D01*
G01*
X5155000Y-26337025D02*
G75*
G02*
X5355000Y-26337025I100000J0D01*
G01*
X5701491Y-26295175D02*
X5701491Y-26428509D01*
X5653872Y-26218985D02*
X5606253Y-26361842D01*
X5606253Y-26361842D02*
X5730062Y-26361842D01*
X5806253Y-26409461D02*
X5815777Y-26418985D01*
X5815777Y-26418985D02*
X5806253Y-26428509D01*
X5806253Y-26428509D02*
X5796729Y-26418985D01*
X5796729Y-26418985D02*
X5806253Y-26409461D01*
X5806253Y-26409461D02*
X5806253Y-26428509D01*
X5939586Y-26228509D02*
X5958634Y-26228509D01*
X5958634Y-26228509D02*
X5977682Y-26238033D01*
X5977682Y-26238033D02*
X5987205Y-26247556D01*
X5987205Y-26247556D02*
X5996729Y-26266604D01*
X5996729Y-26266604D02*
X6006253Y-26304699D01*
X6006253Y-26304699D02*
X6006253Y-26352318D01*
X6006253Y-26352318D02*
X5996729Y-26390413D01*
X5996729Y-26390413D02*
X5987205Y-26409461D01*
X5987205Y-26409461D02*
X5977682Y-26418985D01*
X5977682Y-26418985D02*
X5958634Y-26428509D01*
X5958634Y-26428509D02*
X5939586Y-26428509D01*
X5939586Y-26428509D02*
X5920539Y-26418985D01*
X5920539Y-26418985D02*
X5911015Y-26409461D01*
X5911015Y-26409461D02*
X5901491Y-26390413D01*
X5901491Y-26390413D02*
X5891967Y-26352318D01*
X5891967Y-26352318D02*
X5891967Y-26304699D01*
X5891967Y-26304699D02*
X5901491Y-26266604D01*
X5901491Y-26266604D02*
X5911015Y-26247556D01*
X5911015Y-26247556D02*
X5920539Y-26238033D01*
X5920539Y-26238033D02*
X5939586Y-26228509D01*
X6130062Y-26228509D02*
X6149110Y-26228509D01*
X6149110Y-26228509D02*
X6168158Y-26238033D01*
X6168158Y-26238033D02*
X6177682Y-26247556D01*
X6177682Y-26247556D02*
X6187205Y-26266604D01*
X6187205Y-26266604D02*
X6196729Y-26304699D01*
X6196729Y-26304699D02*
X6196729Y-26352318D01*
X6196729Y-26352318D02*
X6187205Y-26390413D01*
X6187205Y-26390413D02*
X6177682Y-26409461D01*
X6177682Y-26409461D02*
X6168158Y-26418985D01*
X6168158Y-26418985D02*
X6149110Y-26428509D01*
X6149110Y-26428509D02*
X6130062Y-26428509D01*
X6130062Y-26428509D02*
X6111015Y-26418985D01*
X6111015Y-26418985D02*
X6101491Y-26409461D01*
X6101491Y-26409461D02*
X6091967Y-26390413D01*
X6091967Y-26390413D02*
X6082443Y-26352318D01*
X6082443Y-26352318D02*
X6082443Y-26304699D01*
X6082443Y-26304699D02*
X6091967Y-26266604D01*
X6091967Y-26266604D02*
X6101491Y-26247556D01*
X6101491Y-26247556D02*
X6111015Y-26238033D01*
X6111015Y-26238033D02*
X6130062Y-26228509D01*
X6320539Y-26228509D02*
X6339586Y-26228509D01*
X6339586Y-26228509D02*
X6358634Y-26238033D01*
X6358634Y-26238033D02*
X6368158Y-26247556D01*
X6368158Y-26247556D02*
X6377682Y-26266604D01*
X6377682Y-26266604D02*
X6387205Y-26304699D01*
X6387205Y-26304699D02*
X6387205Y-26352318D01*
X6387205Y-26352318D02*
X6377682Y-26390413D01*
X6377682Y-26390413D02*
X6368158Y-26409461D01*
X6368158Y-26409461D02*
X6358634Y-26418985D01*
X6358634Y-26418985D02*
X6339586Y-26428509D01*
X6339586Y-26428509D02*
X6320539Y-26428509D01*
X6320539Y-26428509D02*
X6301491Y-26418985D01*
X6301491Y-26418985D02*
X6291967Y-26409461D01*
X6291967Y-26409461D02*
X6282443Y-26390413D01*
X6282443Y-26390413D02*
X6272920Y-26352318D01*
X6272920Y-26352318D02*
X6272920Y-26304699D01*
X6272920Y-26304699D02*
X6282443Y-26266604D01*
X6282443Y-26266604D02*
X6291967Y-26247556D01*
X6291967Y-26247556D02*
X6301491Y-26238033D01*
X6301491Y-26238033D02*
X6320539Y-26228509D01*
X6472920Y-26428509D02*
X6472920Y-26295175D01*
X6472920Y-26314223D02*
X6482443Y-26304699D01*
X6482443Y-26304699D02*
X6501491Y-26295175D01*
X6501491Y-26295175D02*
X6530063Y-26295175D01*
X6530063Y-26295175D02*
X6549110Y-26304699D01*
X6549110Y-26304699D02*
X6558634Y-26323747D01*
X6558634Y-26323747D02*
X6558634Y-26428509D01*
X6558634Y-26323747D02*
X6568158Y-26304699D01*
X6568158Y-26304699D02*
X6587205Y-26295175D01*
X6587205Y-26295175D02*
X6615777Y-26295175D01*
X6615777Y-26295175D02*
X6634824Y-26304699D01*
X6634824Y-26304699D02*
X6644348Y-26323747D01*
X6644348Y-26323747D02*
X6644348Y-26428509D01*
X6739586Y-26428509D02*
X6739586Y-26295175D01*
X6739586Y-26314223D02*
X6749110Y-26304699D01*
X6749110Y-26304699D02*
X6768158Y-26295175D01*
X6768158Y-26295175D02*
X6796729Y-26295175D01*
X6796729Y-26295175D02*
X6815777Y-26304699D01*
X6815777Y-26304699D02*
X6825301Y-26323747D01*
X6825301Y-26323747D02*
X6825301Y-26428509D01*
X6825301Y-26323747D02*
X6834824Y-26304699D01*
X6834824Y-26304699D02*
X6853872Y-26295175D01*
X6853872Y-26295175D02*
X6882443Y-26295175D01*
X6882443Y-26295175D02*
X6901491Y-26304699D01*
X6901491Y-26304699D02*
X6911015Y-26323747D01*
X6911015Y-26323747D02*
X6911015Y-26428509D01*
X7301491Y-26218985D02*
X7130063Y-26476128D01*
X7558634Y-26228509D02*
X7577682Y-26228509D01*
X7577682Y-26228509D02*
X7596729Y-26238033D01*
X7596729Y-26238033D02*
X7606253Y-26247556D01*
X7606253Y-26247556D02*
X7615777Y-26266604D01*
X7615777Y-26266604D02*
X7625301Y-26304699D01*
X7625301Y-26304699D02*
X7625301Y-26352318D01*
X7625301Y-26352318D02*
X7615777Y-26390413D01*
X7615777Y-26390413D02*
X7606253Y-26409461D01*
X7606253Y-26409461D02*
X7596729Y-26418985D01*
X7596729Y-26418985D02*
X7577682Y-26428509D01*
X7577682Y-26428509D02*
X7558634Y-26428509D01*
X7558634Y-26428509D02*
X7539586Y-26418985D01*
X7539586Y-26418985D02*
X7530063Y-26409461D01*
X7530063Y-26409461D02*
X7520539Y-26390413D01*
X7520539Y-26390413D02*
X7511015Y-26352318D01*
X7511015Y-26352318D02*
X7511015Y-26304699D01*
X7511015Y-26304699D02*
X7520539Y-26266604D01*
X7520539Y-26266604D02*
X7530063Y-26247556D01*
X7530063Y-26247556D02*
X7539586Y-26238033D01*
X7539586Y-26238033D02*
X7558634Y-26228509D01*
X7711015Y-26409461D02*
X7720539Y-26418985D01*
X7720539Y-26418985D02*
X7711015Y-26428509D01*
X7711015Y-26428509D02*
X7701491Y-26418985D01*
X7701491Y-26418985D02*
X7711015Y-26409461D01*
X7711015Y-26409461D02*
X7711015Y-26428509D01*
X7911015Y-26428509D02*
X7796729Y-26428509D01*
X7853872Y-26428509D02*
X7853872Y-26228509D01*
X7853872Y-26228509D02*
X7834825Y-26257080D01*
X7834825Y-26257080D02*
X7815777Y-26276128D01*
X7815777Y-26276128D02*
X7796729Y-26285652D01*
X8091967Y-26228509D02*
X7996729Y-26228509D01*
X7996729Y-26228509D02*
X7987206Y-26323747D01*
X7987206Y-26323747D02*
X7996729Y-26314223D01*
X7996729Y-26314223D02*
X8015777Y-26304699D01*
X8015777Y-26304699D02*
X8063396Y-26304699D01*
X8063396Y-26304699D02*
X8082444Y-26314223D01*
X8082444Y-26314223D02*
X8091967Y-26323747D01*
X8091967Y-26323747D02*
X8101491Y-26342794D01*
X8101491Y-26342794D02*
X8101491Y-26390413D01*
X8101491Y-26390413D02*
X8091967Y-26409461D01*
X8091967Y-26409461D02*
X8082444Y-26418985D01*
X8082444Y-26418985D02*
X8063396Y-26428509D01*
X8063396Y-26428509D02*
X8015777Y-26428509D01*
X8015777Y-26428509D02*
X7996729Y-26418985D01*
X7996729Y-26418985D02*
X7987206Y-26409461D01*
X8168158Y-26228509D02*
X8301491Y-26228509D01*
X8301491Y-26228509D02*
X8215777Y-26428509D01*
X8472920Y-26228509D02*
X8377682Y-26228509D01*
X8377682Y-26228509D02*
X8368158Y-26323747D01*
X8368158Y-26323747D02*
X8377682Y-26314223D01*
X8377682Y-26314223D02*
X8396729Y-26304699D01*
X8396729Y-26304699D02*
X8444349Y-26304699D01*
X8444349Y-26304699D02*
X8463396Y-26314223D01*
X8463396Y-26314223D02*
X8472920Y-26323747D01*
X8472920Y-26323747D02*
X8482444Y-26342794D01*
X8482444Y-26342794D02*
X8482444Y-26390413D01*
X8482444Y-26390413D02*
X8472920Y-26409461D01*
X8472920Y-26409461D02*
X8463396Y-26418985D01*
X8463396Y-26418985D02*
X8444349Y-26428509D01*
X8444349Y-26428509D02*
X8396729Y-26428509D01*
X8396729Y-26428509D02*
X8377682Y-26418985D01*
X8377682Y-26418985D02*
X8368158Y-26409461D01*
X8558634Y-26228509D02*
X8558634Y-26266604D01*
X8634825Y-26228509D02*
X8634825Y-26266604D01*
X8930063Y-26504699D02*
X8920539Y-26495175D01*
X8920539Y-26495175D02*
X8901491Y-26466604D01*
X8901491Y-26466604D02*
X8891968Y-26447556D01*
X8891968Y-26447556D02*
X8882444Y-26418985D01*
X8882444Y-26418985D02*
X8872920Y-26371366D01*
X8872920Y-26371366D02*
X8872920Y-26333271D01*
X8872920Y-26333271D02*
X8882444Y-26285652D01*
X8882444Y-26285652D02*
X8891968Y-26257080D01*
X8891968Y-26257080D02*
X8901491Y-26238033D01*
X8901491Y-26238033D02*
X8920539Y-26209461D01*
X8920539Y-26209461D02*
X8930063Y-26199937D01*
X9091968Y-26295175D02*
X9091968Y-26428509D01*
X9044349Y-26218985D02*
X8996730Y-26361842D01*
X8996730Y-26361842D02*
X9120539Y-26361842D01*
X9349111Y-26428509D02*
X9349111Y-26228509D01*
X9434825Y-26428509D02*
X9434825Y-26323747D01*
X9434825Y-26323747D02*
X9425301Y-26304699D01*
X9425301Y-26304699D02*
X9406253Y-26295175D01*
X9406253Y-26295175D02*
X9377682Y-26295175D01*
X9377682Y-26295175D02*
X9358634Y-26304699D01*
X9358634Y-26304699D02*
X9349111Y-26314223D01*
X9558634Y-26428509D02*
X9539587Y-26418985D01*
X9539587Y-26418985D02*
X9530063Y-26409461D01*
X9530063Y-26409461D02*
X9520539Y-26390413D01*
X9520539Y-26390413D02*
X9520539Y-26333271D01*
X9520539Y-26333271D02*
X9530063Y-26314223D01*
X9530063Y-26314223D02*
X9539587Y-26304699D01*
X9539587Y-26304699D02*
X9558634Y-26295175D01*
X9558634Y-26295175D02*
X9587206Y-26295175D01*
X9587206Y-26295175D02*
X9606253Y-26304699D01*
X9606253Y-26304699D02*
X9615777Y-26314223D01*
X9615777Y-26314223D02*
X9625301Y-26333271D01*
X9625301Y-26333271D02*
X9625301Y-26390413D01*
X9625301Y-26390413D02*
X9615777Y-26409461D01*
X9615777Y-26409461D02*
X9606253Y-26418985D01*
X9606253Y-26418985D02*
X9587206Y-26428509D01*
X9587206Y-26428509D02*
X9558634Y-26428509D01*
X9739587Y-26428509D02*
X9720539Y-26418985D01*
X9720539Y-26418985D02*
X9711015Y-26399937D01*
X9711015Y-26399937D02*
X9711015Y-26228509D01*
X9891968Y-26418985D02*
X9872920Y-26428509D01*
X9872920Y-26428509D02*
X9834825Y-26428509D01*
X9834825Y-26428509D02*
X9815777Y-26418985D01*
X9815777Y-26418985D02*
X9806253Y-26399937D01*
X9806253Y-26399937D02*
X9806253Y-26323747D01*
X9806253Y-26323747D02*
X9815777Y-26304699D01*
X9815777Y-26304699D02*
X9834825Y-26295175D01*
X9834825Y-26295175D02*
X9872920Y-26295175D01*
X9872920Y-26295175D02*
X9891968Y-26304699D01*
X9891968Y-26304699D02*
X9901492Y-26323747D01*
X9901492Y-26323747D02*
X9901492Y-26342794D01*
X9901492Y-26342794D02*
X9806253Y-26361842D01*
X9977682Y-26418985D02*
X9996730Y-26428509D01*
X9996730Y-26428509D02*
X10034825Y-26428509D01*
X10034825Y-26428509D02*
X10053873Y-26418985D01*
X10053873Y-26418985D02*
X10063396Y-26399937D01*
X10063396Y-26399937D02*
X10063396Y-26390413D01*
X10063396Y-26390413D02*
X10053873Y-26371366D01*
X10053873Y-26371366D02*
X10034825Y-26361842D01*
X10034825Y-26361842D02*
X10006253Y-26361842D01*
X10006253Y-26361842D02*
X9987206Y-26352318D01*
X9987206Y-26352318D02*
X9977682Y-26333271D01*
X9977682Y-26333271D02*
X9977682Y-26323747D01*
X9977682Y-26323747D02*
X9987206Y-26304699D01*
X9987206Y-26304699D02*
X10006253Y-26295175D01*
X10006253Y-26295175D02*
X10034825Y-26295175D01*
X10034825Y-26295175D02*
X10053873Y-26304699D01*
X10130063Y-26504699D02*
X10139587Y-26495175D01*
X10139587Y-26495175D02*
X10158634Y-26466604D01*
X10158634Y-26466604D02*
X10168158Y-26447556D01*
X10168158Y-26447556D02*
X10177682Y-26418985D01*
X10177682Y-26418985D02*
X10187206Y-26371366D01*
X10187206Y-26371366D02*
X10187206Y-26333271D01*
X10187206Y-26333271D02*
X10177682Y-26285652D01*
X10177682Y-26285652D02*
X10168158Y-26257080D01*
X10168158Y-26257080D02*
X10158634Y-26238033D01*
X10158634Y-26238033D02*
X10139587Y-26209461D01*
X10139587Y-26209461D02*
X10130063Y-26199937D01*
X10491968Y-26504699D02*
X10482444Y-26495175D01*
X10482444Y-26495175D02*
X10463396Y-26466604D01*
X10463396Y-26466604D02*
X10453873Y-26447556D01*
X10453873Y-26447556D02*
X10444349Y-26418985D01*
X10444349Y-26418985D02*
X10434825Y-26371366D01*
X10434825Y-26371366D02*
X10434825Y-26333271D01*
X10434825Y-26333271D02*
X10444349Y-26285652D01*
X10444349Y-26285652D02*
X10453873Y-26257080D01*
X10453873Y-26257080D02*
X10463396Y-26238033D01*
X10463396Y-26238033D02*
X10482444Y-26209461D01*
X10482444Y-26209461D02*
X10491968Y-26199937D01*
X10568158Y-26295175D02*
X10568158Y-26428509D01*
X10568158Y-26314223D02*
X10577682Y-26304699D01*
X10577682Y-26304699D02*
X10596730Y-26295175D01*
X10596730Y-26295175D02*
X10625301Y-26295175D01*
X10625301Y-26295175D02*
X10644349Y-26304699D01*
X10644349Y-26304699D02*
X10653873Y-26323747D01*
X10653873Y-26323747D02*
X10653873Y-26428509D01*
X10777682Y-26428509D02*
X10758634Y-26418985D01*
X10758634Y-26418985D02*
X10749111Y-26409461D01*
X10749111Y-26409461D02*
X10739587Y-26390413D01*
X10739587Y-26390413D02*
X10739587Y-26333271D01*
X10739587Y-26333271D02*
X10749111Y-26314223D01*
X10749111Y-26314223D02*
X10758634Y-26304699D01*
X10758634Y-26304699D02*
X10777682Y-26295175D01*
X10777682Y-26295175D02*
X10806254Y-26295175D01*
X10806254Y-26295175D02*
X10825301Y-26304699D01*
X10825301Y-26304699D02*
X10834825Y-26314223D01*
X10834825Y-26314223D02*
X10844349Y-26333271D01*
X10844349Y-26333271D02*
X10844349Y-26390413D01*
X10844349Y-26390413D02*
X10834825Y-26409461D01*
X10834825Y-26409461D02*
X10825301Y-26418985D01*
X10825301Y-26418985D02*
X10806254Y-26428509D01*
X10806254Y-26428509D02*
X10777682Y-26428509D01*
X10901492Y-26295175D02*
X10977682Y-26295175D01*
X10930063Y-26228509D02*
X10930063Y-26399937D01*
X10930063Y-26399937D02*
X10939587Y-26418985D01*
X10939587Y-26418985D02*
X10958634Y-26428509D01*
X10958634Y-26428509D02*
X10977682Y-26428509D01*
X11196730Y-26295175D02*
X11196730Y-26495175D01*
X11196730Y-26304699D02*
X11215777Y-26295175D01*
X11215777Y-26295175D02*
X11253873Y-26295175D01*
X11253873Y-26295175D02*
X11272920Y-26304699D01*
X11272920Y-26304699D02*
X11282444Y-26314223D01*
X11282444Y-26314223D02*
X11291968Y-26333271D01*
X11291968Y-26333271D02*
X11291968Y-26390413D01*
X11291968Y-26390413D02*
X11282444Y-26409461D01*
X11282444Y-26409461D02*
X11272920Y-26418985D01*
X11272920Y-26418985D02*
X11253873Y-26428509D01*
X11253873Y-26428509D02*
X11215777Y-26428509D01*
X11215777Y-26428509D02*
X11196730Y-26418985D01*
X11406253Y-26428509D02*
X11387206Y-26418985D01*
X11387206Y-26418985D02*
X11377682Y-26399937D01*
X11377682Y-26399937D02*
X11377682Y-26228509D01*
X11568158Y-26428509D02*
X11568158Y-26323747D01*
X11568158Y-26323747D02*
X11558634Y-26304699D01*
X11558634Y-26304699D02*
X11539587Y-26295175D01*
X11539587Y-26295175D02*
X11501492Y-26295175D01*
X11501492Y-26295175D02*
X11482444Y-26304699D01*
X11568158Y-26418985D02*
X11549111Y-26428509D01*
X11549111Y-26428509D02*
X11501492Y-26428509D01*
X11501492Y-26428509D02*
X11482444Y-26418985D01*
X11482444Y-26418985D02*
X11472920Y-26399937D01*
X11472920Y-26399937D02*
X11472920Y-26380890D01*
X11472920Y-26380890D02*
X11482444Y-26361842D01*
X11482444Y-26361842D02*
X11501492Y-26352318D01*
X11501492Y-26352318D02*
X11549111Y-26352318D01*
X11549111Y-26352318D02*
X11568158Y-26342794D01*
X11634825Y-26295175D02*
X11711015Y-26295175D01*
X11663396Y-26228509D02*
X11663396Y-26399937D01*
X11663396Y-26399937D02*
X11672920Y-26418985D01*
X11672920Y-26418985D02*
X11691968Y-26428509D01*
X11691968Y-26428509D02*
X11711015Y-26428509D01*
X11853873Y-26418985D02*
X11834825Y-26428509D01*
X11834825Y-26428509D02*
X11796730Y-26428509D01*
X11796730Y-26428509D02*
X11777682Y-26418985D01*
X11777682Y-26418985D02*
X11768158Y-26399937D01*
X11768158Y-26399937D02*
X11768158Y-26323747D01*
X11768158Y-26323747D02*
X11777682Y-26304699D01*
X11777682Y-26304699D02*
X11796730Y-26295175D01*
X11796730Y-26295175D02*
X11834825Y-26295175D01*
X11834825Y-26295175D02*
X11853873Y-26304699D01*
X11853873Y-26304699D02*
X11863396Y-26323747D01*
X11863396Y-26323747D02*
X11863396Y-26342794D01*
X11863396Y-26342794D02*
X11768158Y-26361842D01*
X12034825Y-26428509D02*
X12034825Y-26228509D01*
X12034825Y-26418985D02*
X12015777Y-26428509D01*
X12015777Y-26428509D02*
X11977682Y-26428509D01*
X11977682Y-26428509D02*
X11958634Y-26418985D01*
X11958634Y-26418985D02*
X11949111Y-26409461D01*
X11949111Y-26409461D02*
X11939587Y-26390413D01*
X11939587Y-26390413D02*
X11939587Y-26333271D01*
X11939587Y-26333271D02*
X11949111Y-26314223D01*
X11949111Y-26314223D02*
X11958634Y-26304699D01*
X11958634Y-26304699D02*
X11977682Y-26295175D01*
X11977682Y-26295175D02*
X12015777Y-26295175D01*
X12015777Y-26295175D02*
X12034825Y-26304699D01*
X12111015Y-26504699D02*
X12120539Y-26495175D01*
X12120539Y-26495175D02*
X12139587Y-26466604D01*
X12139587Y-26466604D02*
X12149111Y-26447556D01*
X12149111Y-26447556D02*
X12158634Y-26418985D01*
X12158634Y-26418985D02*
X12168158Y-26371366D01*
X12168158Y-26371366D02*
X12168158Y-26333271D01*
X12168158Y-26333271D02*
X12158634Y-26285652D01*
X12158634Y-26285652D02*
X12149111Y-26257080D01*
X12149111Y-26257080D02*
X12139587Y-26238033D01*
X12139587Y-26238033D02*
X12120539Y-26209461D01*
X12120539Y-26209461D02*
X12111015Y-26199937D01*
M02*
